<?xml version="1.0" encoding="UTF-8" standalone="no"?>
<!DOCTYPE svg PUBLIC "-//W3C//DTD SVG 1.1//EN"
 "http://www.w3.org/Graphics/SVG/1.1/DTD/svg11.dtd">
<!-- Generated by graphviz version 2.38.0 (20140413.2041)
 -->
<!-- Title: %3 Pages: 1 -->
<svg width="161pt" height="172pt"
 viewBox="0.00 0.00 160.71 171.54" xmlns="http://www.w3.org/2000/svg" xmlns:xlink="http://www.w3.org/1999/xlink">
<g id="graph0" class="graph" transform="scale(1 1) rotate(0) translate(4 167.539)">
<title>%3</title>
<polygon fill="white" stroke="none" points="-4,4 -4,-167.539 156.713,-167.539 156.713,4 -4,4"/>
<!-- x -->
<g id="node1" class="node"><title>x</title>
<polygon fill="lightgray" stroke="black" points="31.2132,-163.539 11.2132,-163.539 11.2132,-145.539 31.2132,-145.539 31.2132,-163.539"/>
<text text-anchor="middle" x="21.2132" y="-152.339" font-family="Times New Roman,serif" font-size="9.00">x</text>
</g>
<!-- 149 -->
<g id="node6" class="node"><title>149</title>
<ellipse fill="white" stroke="black" cx="21.2132" cy="-88.3259" rx="21.4286" ry="21.4286"/>
<text text-anchor="middle" x="21.2132" y="-86.1259" font-family="Times New Roman,serif" font-size="9.00">149</text>
</g>
<!-- x&#45;&gt;149 -->
<g id="edge2" class="edge"><title>x&#45;&gt;149</title>
<path fill="none" stroke="green" stroke-width="0.247168" d="M21.2132,-145.406C21.2132,-138.864 21.2132,-129.235 21.2132,-119.795"/>
<polygon fill="green" stroke="green" stroke-width="0.247168" points="24.7133,-119.781 21.2132,-109.781 17.7133,-119.781 24.7133,-119.781"/>
</g>
<!-- dx -->
<g id="node2" class="node"><title>dx</title>
<polygon fill="lightgray" stroke="black" points="74.7132,-163.539 49.7132,-163.539 49.7132,-145.539 74.7132,-145.539 74.7132,-163.539"/>
<text text-anchor="middle" x="62.2132" y="-152.339" font-family="Times New Roman,serif" font-size="9.00">dx</text>
</g>
<!-- theta -->
<g id="node3" class="node"><title>theta</title>
<polygon fill="lightgray" stroke="black" points="95.7132,-97.3259 60.7132,-97.3259 60.7132,-79.3259 95.7132,-79.3259 95.7132,-97.3259"/>
<text text-anchor="middle" x="78.2132" y="-86.1259" font-family="Times New Roman,serif" font-size="9.00">theta</text>
</g>
<!-- F -->
<g id="node5" class="node"><title>F</title>
<ellipse fill="lightblue" stroke="black" cx="78.2132" cy="-15.5563" rx="15.6129" ry="15.6129"/>
<text text-anchor="middle" x="78.2132" y="-13.3563" font-family="Times New Roman,serif" font-size="9.00">F</text>
</g>
<!-- theta&#45;&gt;F -->
<g id="edge4" class="edge"><title>theta&#45;&gt;F</title>
<path fill="none" stroke="green" stroke-width="0.231663" d="M78.2132,-79.2077C78.2132,-69.9831 78.2132,-54.4853 78.2132,-41.212"/>
<polygon fill="green" stroke="green" stroke-width="0.231663" points="81.7133,-41.2064 78.2132,-31.2064 74.7133,-41.2065 81.7133,-41.2064"/>
</g>
<!-- dtheta -->
<g id="node4" class="node"><title>dtheta</title>
<polygon fill="lightgray" stroke="black" points="152.713,-97.3259 113.713,-97.3259 113.713,-79.3259 152.713,-79.3259 152.713,-97.3259"/>
<text text-anchor="middle" x="133.213" y="-86.1259" font-family="Times New Roman,serif" font-size="9.00">dtheta</text>
</g>
<!-- dtheta&#45;&gt;F -->
<g id="edge1" class="edge"><title>dtheta&#45;&gt;F</title>
<path fill="none" stroke="green" stroke-width="0.613738" d="M126.904,-79.2077C118.866,-68.865 104.699,-50.6361 93.7118,-36.4987"/>
<polygon fill="green" stroke="green" stroke-width="0.613738" points="96.2648,-34.08 87.3648,-28.3319 90.7377,-38.3755 96.2648,-34.08"/>
</g>
<!-- 149&#45;&gt;F -->
<g id="edge3" class="edge"><title>149&#45;&gt;F</title>
<path fill="none" stroke="red" stroke-width="0.420496" d="M34.1474,-71.2672C42.5232,-60.868 53.4865,-47.2563 62.3823,-36.2116"/>
<polygon fill="red" stroke="red" stroke-width="0.420496" points="65.1578,-38.3452 68.7048,-28.3617 59.7062,-33.9543 65.1578,-38.3452"/>
</g>
</g>
</svg>
